<svg xmlns="http://www.w3.org/2000/svg" xmlns:xlink="http://www.w3.org/1999/xlink" width="175.89" height="131.28" viewBox="0 0 175.89 131.28">
  <defs>
    <clipPath id="clip-Logo">
      <rect width="175.89" height="131.28"/>
    </clipPath>
  </defs>
  <g id="Logo" clip-path="url(#clip-Logo)">
    <rect width="175.89" height="131.28" fill="#fff"/>
    <g id="bike_king_borders_bottom" data-name="bike king borders bottom" transform="translate(-158 -1)">
      <text id="Bike_King_Borders_" data-name="Bike King Borders " transform="translate(168.678 99.918)" fill="#1a1818" font-size="19" font-family="LucidaHandwriting-Italic, Lucida Handwriting" font-style="italic" letter-spacing="0.03em"><tspan x="0" y="0">B</tspan><tspan y="0" fill="#00358c" font-size="13">ike</tspan><tspan y="0" fill="#e60019" font-size="13"> </tspan><tspan y="0">K</tspan><tspan y="0" fill="#00358c" font-size="13">ing</tspan><tspan y="0" fill="#e60019" font-size="13"> </tspan><tspan y="0">B</tspan><tspan y="0" fill="#00358c" font-size="13">orders</tspan><tspan y="0" fill="#e60019" font-size="13"> </tspan></text>
    </g>
    <g id="gear_cog" data-name="gear cog" transform="translate(-137 -7)">
      <path id="Path_2" data-name="Path 2" d="M281.8,52.374c.02-.337.032-.676.032-1.019q0-.751-.069-1.488l-3.774-1.206a13.315,13.315,0,0,0-.863-2.721l2.362-3a16.689,16.689,0,0,0-1.552-2.161l-3.684.987a13.49,13.49,0,0,0-2.076-1.68l.343-3.547a17.216,17.216,0,0,0-2.736-1.079l-2.423,2.664a13.492,13.492,0,0,0-2.379-.245l-1.591-3.091a17.292,17.292,0,0,0-3.081.524l-.6,3.551a13.327,13.327,0,0,0-1.889.946l-3.164-1.83a16.893,16.893,0,0,0-2.365,2.059l1.5,3.507a13.468,13.468,0,0,0-1,1.632l-3.926.184a16.194,16.194,0,0,0-.855,2.941l3.31,2.24c-.016.268-.025.54-.025.812q0,.528.04,1.045l-3.263,2.319a16.145,16.145,0,0,0,.909,2.912l3.912.094a13.408,13.408,0,0,0,1.054,1.659l-1.419,3.536a17.018,17.018,0,0,0,2.378,1.992l3.109-1.9a13.348,13.348,0,0,0,1.99.947l.677,3.529a17.376,17.376,0,0,0,3.042.451l1.516-3.12a13.513,13.513,0,0,0,2.474-.314l2.482,2.607a17.031,17.031,0,0,0,2.659-1.124l-.423-3.547a13.63,13.63,0,0,0,2.089-1.783l3.706.9a16.61,16.61,0,0,0,1.473-2.172l-2.441-2.957a13.362,13.362,0,0,0,.794-2.771Z" fill="none" stroke="#1a1818" stroke-width="3"/>
      <path id="Path_3" data-name="Path 3" d="M221.55,52.914c.028-.456.044-.915.044-1.378q0-1.017-.093-2.011l-5.1-1.63a18.018,18.018,0,0,0-1.168-3.678l3.193-4.052a22.523,22.523,0,0,0-2.1-2.922l-4.979,1.334a18.314,18.314,0,0,0-2.8-2.27l.463-4.794a23.269,23.269,0,0,0-3.7-1.459l-3.274,3.6a18.214,18.214,0,0,0-3.216-.331l-2.15-4.177a23.311,23.311,0,0,0-4.164.708l-.807,4.8a18.008,18.008,0,0,0-2.553,1.279l-4.276-2.475a22.891,22.891,0,0,0-3.2,2.784l2.029,4.739a18.466,18.466,0,0,0-1.346,2.207l-5.306.248a21.753,21.753,0,0,0-1.155,3.975l4.473,3.028c-.021.363-.034.729-.034,1.1q0,.713.055,1.412l-4.411,3.135a21.982,21.982,0,0,0,1.228,3.935l5.288.127a18.351,18.351,0,0,0,1.424,2.242L182,67.167a22.977,22.977,0,0,0,3.214,2.691l4.2-2.56a18.065,18.065,0,0,0,2.689,1.28l.916,4.769a23.541,23.541,0,0,0,4.111.61l2.05-4.218a18.122,18.122,0,0,0,3.343-.424l3.354,3.524a23.082,23.082,0,0,0,3.6-1.519l-.573-4.795a18.354,18.354,0,0,0,2.824-2.409l5.009,1.219a22.169,22.169,0,0,0,1.99-2.936l-3.3-4a18.032,18.032,0,0,0,1.073-3.746Z" fill="none" stroke="#1a1818" stroke-width="3"/>
      <path id="Path_4" data-name="Path 4" d="M227.881,51.552a29.137,29.137,0,1,1-29.137-29.138A29.137,29.137,0,0,1,227.881,51.552Z" fill="none" stroke="#1a1818" stroke-width="3"/>
      <path id="Path_5" data-name="Path 5" d="M212.541,52.376q.025-.414.026-.834,0-.615-.056-1.216l-3.085-.987a10.948,10.948,0,0,0-.707-2.225l1.932-2.451a13.638,13.638,0,0,0-1.27-1.768l-3.011.808a11.051,11.051,0,0,0-1.7-1.374l.28-2.9a14.207,14.207,0,0,0-2.238-.883l-1.98,2.179a11.028,11.028,0,0,0-1.945-.2L197.489,38a14.117,14.117,0,0,0-2.519.427l-.489,2.905a10.8,10.8,0,0,0-1.544.773l-2.587-1.5a13.811,13.811,0,0,0-1.934,1.684l1.228,2.867a11.121,11.121,0,0,0-.815,1.335l-3.21.15a13.2,13.2,0,0,0-.7,2.4l2.706,1.832q-.02.33-.02.664c0,.288.011.572.033.854l-2.669,1.9a13.354,13.354,0,0,0,.743,2.381l3.2.076a11.032,11.032,0,0,0,.861,1.357L188.614,61a13.868,13.868,0,0,0,1.944,1.629l2.542-1.549a11.028,11.028,0,0,0,1.627.774l.554,2.885a14.123,14.123,0,0,0,2.487.369l1.24-2.551a11.139,11.139,0,0,0,2.023-.257l2.029,2.132a13.979,13.979,0,0,0,2.174-.919l-.346-2.9a11.059,11.059,0,0,0,1.708-1.458l3.031.739a13.656,13.656,0,0,0,1.2-1.777l-2-2.417a10.964,10.964,0,0,0,.649-2.266Z" fill="none" stroke="#1a1818" stroke-width="3"/>
      <path id="Path_6" data-name="Path 6" d="M273.7,51.891c.01-.176.016-.352.016-.531,0-.26-.011-.518-.035-.774l-1.964-.627a6.932,6.932,0,0,0-.449-1.416l1.229-1.56a8.6,8.6,0,0,0-.808-1.124l-1.916.513a7.058,7.058,0,0,0-1.08-.874l.179-1.845a8.967,8.967,0,0,0-1.424-.561l-1.26,1.386a7,7,0,0,0-1.238-.128l-.827-1.608a9.083,9.083,0,0,0-1.6.273l-.311,1.847a6.931,6.931,0,0,0-.982.493L259.58,44.4a8.812,8.812,0,0,0-1.231,1.072l.781,1.824a6.971,6.971,0,0,0-.518.849l-2.043.1a8.467,8.467,0,0,0-.445,1.53l1.723,1.166c-.009.139-.014.28-.014.421,0,.183.007.365.021.544l-1.7,1.207a8.484,8.484,0,0,0,.472,1.515l2.036.048a6.953,6.953,0,0,0,.548.863l-.738,1.84a8.785,8.785,0,0,0,1.237,1.036l1.617-.986a6.867,6.867,0,0,0,1.035.493l.353,1.836a9.128,9.128,0,0,0,1.582.235l.789-1.624a6.981,6.981,0,0,0,1.287-.163l1.291,1.356a8.86,8.86,0,0,0,1.384-.584l-.221-1.846a7.034,7.034,0,0,0,1.087-.927l1.929.469a8.651,8.651,0,0,0,.765-1.13L271.341,54a6.981,6.981,0,0,0,.412-1.442Z" fill="none" stroke="#1a1818" stroke-width="3"/>
    </g>
  </g>
</svg>
